<svg width="18" height="18" viewBox="0 0 18 18" fill="none" xmlns="http://www.w3.org/2000/svg">
<path d="M11.0191 2.98245L3.13281 10.6357L6.5569 13.9586L14.4432 6.30536L11.0191 2.98245Z" fill="#776E81"/>
<path d="M0.923246 12.78C0.820214 12.88 0.768698 12.9799 0.717181 13.1299L0.0217119 16.1545C-0.107079 16.6544 0.356568 17.1044 0.897488 17.0044L3.98846 16.2795C4.11725 16.2545 4.24605 16.1795 4.34908 16.0795L5.1991 15.2546L1.77327 11.9551L0.923246 12.78Z" fill="#776E81"/>
<path d="M17.305 2.5309L14.9094 0.206221C14.6261 -0.0687404 14.1625 -0.0687404 13.8791 0.206221L12.3594 1.68102L15.7852 5.00555L17.305 3.53076C17.5883 3.2558 17.5883 2.80586 17.305 2.5309Z" fill="#776E81"/>
</svg>
