<svg width="17" height="18" viewBox="0 0 17 18" fill="none" xmlns="http://www.w3.org/2000/svg">
<path d="M10.6934 2.98242L3.04004 10.6357L6.36296 13.9587L14.0163 6.30534L10.6934 2.98242Z" fill="#00DAAE"/>
<path d="M0.895952 12.78C0.795965 12.88 0.745972 12.9799 0.695979 13.1299L0.0210701 16.1545C-0.103913 16.6544 0.346026 17.1044 0.870955 17.0044L3.87055 16.2795C3.99553 16.2545 4.12052 16.1795 4.2205 16.0795L5.04539 15.2546L1.72084 11.9551L0.895952 12.78Z" fill="#00DAAE"/>
<path d="M16.7935 2.53091L14.4688 0.206222C14.1938 -0.0687407 13.7439 -0.0687407 13.4689 0.206222L11.9941 1.68102L15.3187 5.00557L16.7935 3.53077C17.0685 3.25581 17.0685 2.80587 16.7935 2.53091Z" fill="#00DAAE"/>
</svg>
