
<svg width="65" height="53" viewBox="0 0 65 53" fill="none" xmlns="http://www.w3.org/2000/svg">
<g clip-path="url(#clip0)">
<path d="M0.911327 25.7639C0.573837 25.4051 0.31964 24.9744 0.167304 24.5033C0.0149677 24.0322 -0.0316611 23.5326 0.0308234 23.0408C0.12091 22.1498 0.5397 21.3261 1.20331 20.7348C1.86692 20.1435 2.72634 19.8283 3.60944 19.8523H4.56541C6.46479 8.4628 17.7164 0.000405378 30.9428 0.000405378C36.1714 -0.027077 41.3148 1.34326 45.8547 3.97333C45.9239 4.04986 46.0749 4.04986 46.2195 4.04986C46.3642 4.04986 46.4396 4.04986 46.5088 3.97333C48.6108 2.71509 51.0182 2.07887 53.4585 2.13673C53.948 2.12509 54.4377 2.14854 54.9239 2.20688C55.3515 2.25308 55.7592 2.41389 56.1052 2.67279C56.4511 2.93169 56.7229 3.27933 56.8925 3.67999C57.0517 4.07852 57.0883 4.5166 56.9974 4.93661C56.9065 5.35662 56.6923 5.73889 56.383 6.03313C54.9539 7.39725 54.0265 9.21493 53.7541 11.1858C53.9874 11.4789 54.1839 11.8002 54.339 12.1424C55.562 14.1037 57.0431 15.8865 58.7415 17.4417H61.1503C62.1725 17.4451 63.1522 17.8565 63.8773 18.587C64.6025 19.3174 65.0146 20.3081 65.0245 21.3445V28.9269C65.0255 29.7054 64.8635 30.4752 64.549 31.1854C64.2346 31.8955 63.775 32.5299 63.2006 33.0465C59.5541 36.2274 55.4557 38.833 51.0434 40.7755C50.8725 40.851 50.7192 40.9621 50.5935 41.1017C50.4678 41.2412 50.3725 41.406 50.3138 41.5854L47.4585 51.0809C47.282 51.6294 46.9411 52.1085 46.4835 52.4514C46.0258 52.7944 45.474 52.984 44.905 52.994H41.1C40.5313 52.9831 39.9799 52.7931 39.5224 52.4503C39.0649 52.1075 38.7239 51.6289 38.5466 51.0809L37.2321 46.3682C37.2 46.2925 37.1499 46.2261 37.0862 46.1749C37.0225 46.1237 36.9473 46.0893 36.8673 46.0749H36.7918C32.9287 46.8146 28.9631 46.8146 25.1 46.0749H25.0245C24.938 46.0658 24.8514 46.0915 24.7833 46.1463C24.7151 46.2011 24.6708 46.2807 24.6598 46.3682L23.3453 51.0809C23.1872 51.6555 22.8406 52.1583 22.3626 52.5062C21.8846 52.854 21.3039 53.0261 20.7164 52.994H16.9428C16.3702 52.9989 15.8115 52.8149 15.3509 52.4698C14.8904 52.1248 14.5529 51.6373 14.3893 51.0809L10.6157 38.569C10.5657 38.3741 10.4659 38.196 10.3264 38.0525C7.42322 35.0034 5.44724 31.1711 4.6346 27.0138H3.46479C2.97332 27.0168 2.48768 26.9058 2.04507 26.6891C1.60247 26.4725 1.21465 26.156 0.911327 25.7639ZM44.3893 20.0946C44.3843 20.6973 44.556 21.2879 44.8826 21.7915C45.2092 22.2951 45.676 22.6889 46.2237 22.9231C46.7714 23.1572 47.3754 23.2211 47.959 23.1066C48.5426 22.9922 49.0795 22.7045 49.5016 22.2801C49.9237 21.8557 50.2119 21.3138 50.3297 20.723C50.4475 20.1323 50.3896 19.5193 50.1633 18.962C49.937 18.4047 49.5525 17.9281 49.0586 17.5927C48.5647 17.2573 47.9837 17.0783 47.3893 17.0783C46.9958 17.0723 46.6052 17.1461 46.2402 17.2952C45.8752 17.4444 45.5433 17.6659 45.2639 17.9469C44.9844 18.2278 44.7631 18.5625 44.613 18.9313C44.4628 19.3001 44.3868 19.6956 44.3893 20.0946Z" fill="url(#paint0_linear)"/>
<path d="M47.3902 23.997C49.0436 23.997 50.3839 22.2496 50.3839 20.0942C50.3839 17.9387 49.0436 16.1914 47.3902 16.1914C45.7368 16.1914 44.3965 17.9387 44.3965 20.0942C44.3965 22.2496 45.7368 23.997 47.3902 23.997Z" fill="#844326"/>
<path d="M18.1511 13.5713L19.9058 16.8364L23.1259 18.6219L19.9058 20.4075L18.1511 23.6662L16.39 20.4075L13.1699 18.6219L16.39 16.8364L18.1511 13.5713Z" fill="white"/>
<path d="M23.2392 24.8906L24.1574 26.5933L25.8304 27.518L24.1574 28.449L23.2392 30.1453L22.3273 28.449L20.6543 27.518L22.3273 26.5933L23.2392 24.8906Z" fill="white"/>
<path d="M43.3016 5.80371L44.0563 7.20029L45.4336 7.96554L44.0563 8.72442L43.3016 10.121L42.5469 8.72442L41.1758 7.96554L42.5469 7.20029L43.3016 5.80371Z" fill="white"/>
<path d="M39.5477 3.43164L40.0571 4.37545L40.9879 4.89199L40.0571 5.40854L39.5477 6.35235L39.0382 5.40854L38.1074 4.89199L39.0382 4.37545L39.5477 3.43164Z" fill="white"/>
<path d="M8.58449 21.5868C8.52032 19.6324 8.82781 17.6839 9.49015 15.8474C10.1388 13.9691 11.1073 12.2208 12.3518 10.6819C13.5936 9.13402 15.0998 7.82504 16.7983 6.81742C18.464 5.81005 20.3154 5.15898 22.2386 4.9043C20.6237 5.8343 19.0767 6.88071 17.6097 8.03545C16.2132 9.17498 14.936 10.4571 13.7983 11.8617C12.6589 13.2737 11.6603 14.7968 10.8172 16.4086C9.96857 18.0864 9.22292 19.8158 8.58449 21.5868Z" fill="white"/>
<g opacity="0.21">
<path opacity="0.21" d="M50.6231 41.0686C49.1076 42.0596 47.5029 42.903 45.8307 43.5875C44.1644 44.2854 42.4515 44.8629 40.7049 45.3157C37.1817 46.2614 33.5431 46.6909 29.8999 46.5911C29.4407 46.5911 28.9816 46.5911 28.5225 46.5401L27.1514 46.3934C26.6913 46.3552 26.2336 46.2914 25.7804 46.2021C25.3275 46.1192 24.8684 46.0555 24.4219 45.9534C22.6165 45.5705 20.8531 45.0066 19.1577 44.2699C17.4784 43.5402 15.8804 42.6317 14.3904 41.5596C12.936 40.4921 11.5573 39.3222 10.2646 38.0586C11.9502 38.7537 13.4911 39.6019 15.0948 40.2714C16.6761 40.9571 18.3002 41.5366 19.9565 42.006C21.586 42.465 23.2437 42.8144 24.9187 43.0519C26.5872 43.2762 28.2673 43.3997 29.9502 43.4217C33.3777 43.4461 36.8029 43.2331 40.2018 42.784C43.6546 42.3185 47.0885 41.7318 50.6231 41.0686Z" fill="#8C4E21"/>
</g>
</g>
<defs>
<linearGradient id="paint0_linear" x1="32.5025" y1="-12.25" x2="32.5025" y2="89.7197" gradientUnits="userSpaceOnUse">
<stop stop-color="#FAF070"/>
<stop offset="0.57" stop-color="#F2AA40"/>
<stop offset="1" stop-color="#E86132"/>
</linearGradient>
<clipPath id="clip0">
<rect width="65" height="53" fill="white"/>
</clipPath>
</defs>
</svg>
