<svg width="38" height="31" viewBox="0 0 38 31" fill="none" xmlns="http://www.w3.org/2000/svg">
<path d="M29.6262 9.00495H5.42332C3.43542 9.00495 1.83228 7.40181 1.83228 5.42307C1.83228 3.43517 3.43542 1.83203 5.42332 1.83203H28.7559C29.2414 1.83203 29.6353 2.22595 29.6353 2.71147V9.00495H29.6262Z" stroke="#C0C1C9" stroke-width="3" stroke-miterlimit="10" stroke-linecap="round"/>
<path d="M1.83228 5.42285L2.04297 26.4561C2.04297 27.4729 3.05982 28.2882 4.3057 28.2882H32.9241C34.1791 28.2882 35.1868 27.4638 35.1868 26.4561V11.1667C35.1868 10.1498 34.0967 9.00473 32.8508 9.00473H28.1788" stroke="#C0C1C9" stroke-width="3" stroke-miterlimit="10" stroke-linecap="round"/>
<path d="M26.6762 20.4373C28.0371 20.4373 29.1404 19.334 29.1404 17.973C29.1404 16.6121 28.0371 15.5088 26.6762 15.5088C25.3152 15.5088 24.2119 16.6121 24.2119 17.973C24.2119 19.334 25.3152 20.4373 26.6762 20.4373Z" fill="#C0C1C9"/>
</svg>
